<?xml version="1.0" encoding="utf-8"?>
<!-- Generator: Adobe Illustrator 23.0.6, SVG Export Plug-In . SVG Version: 6.00 Build 0)  -->
<svg version="1.1" id="Layer_1" xmlns="http://www.w3.org/2000/svg" xmlns:xlink="http://www.w3.org/1999/xlink" x="0px" y="0px"
	 viewBox="0 0 137.15 64.2" style="enable-background:new 0 0 137.15 64.2;" xml:space="preserve">
<style type="text/css">
	.st0{fill:#30C5FF;}
	.st1{stroke:#30C5FF;stroke-miterlimit:10;}
	.st2{fill:none;stroke:#30C5FF;stroke-linecap:round;stroke-miterlimit:10;}
</style>
<g>
	<path class="st0" d="M-21.71,27.3h5.15c2.87,0,4.82,0.12,5.84,0.35c1.54,0.35,2.78,1.11,3.74,2.26s1.44,2.58,1.44,4.27
		c0,1.41-0.33,2.65-0.99,3.71s-1.61,1.87-2.84,2.42s-2.93,0.82-5.1,0.84l9.3,12.01h-3.2l-9.3-12.01h-1.46v12.01h-2.58V27.3z
		 M-19.13,29.83v8.79l4.45,0.04c1.73,0,3-0.16,3.83-0.49c0.83-0.33,1.47-0.85,1.94-1.57s0.7-1.53,0.7-2.42
		c0-0.87-0.23-1.66-0.7-2.36s-1.09-1.22-1.85-1.52c-0.76-0.3-2.03-0.46-3.8-0.46H-19.13z"/>
	<path class="st0" d="M-2.68,48.34l2.2-1.32c1.55,2.85,3.33,4.27,5.36,4.27c0.87,0,1.68-0.2,2.44-0.61s1.34-0.95,1.74-1.63
		s0.6-1.4,0.6-2.16c0-0.87-0.29-1.72-0.88-2.55C7.98,43.2,6.5,41.82,4.36,40.2c-2.16-1.63-3.5-2.81-4.03-3.53
		c-0.91-1.22-1.37-2.54-1.37-3.96c0-1.13,0.27-2.15,0.81-3.08s1.3-1.66,2.28-2.19s2.04-0.8,3.19-0.8c1.22,0,2.36,0.3,3.42,0.91
		s2.18,1.71,3.37,3.33l-2.11,1.6c-0.97-1.29-1.8-2.14-2.49-2.55s-1.43-0.62-2.24-0.62c-1.04,0-1.9,0.32-2.56,0.95
		s-0.99,1.41-0.99,2.34c0,0.56,0.12,1.11,0.35,1.63s0.66,1.1,1.28,1.72c0.34,0.33,1.45,1.19,3.34,2.58
		c2.24,1.65,3.77,3.12,4.61,4.41s1.25,2.58,1.25,3.88c0,1.88-0.71,3.5-2.14,4.89s-3.16,2.07-5.19,2.07c-1.57,0-2.99-0.42-4.27-1.26
		S-1.6,50.31-2.68,48.34z"/>
	<path class="st0" d="M72.89,27.3h2.58v23.36h9.95v2.5H72.89V27.3z"/>
	<path class="st0" d="M108.17,34.03v19.13h-2.43v-3.29c-1.03,1.25-2.19,2.2-3.47,2.83s-2.69,0.95-4.21,0.95
		c-2.71,0-5.02-0.98-6.93-2.94s-2.87-4.35-2.87-7.16c0-2.75,0.97-5.11,2.9-7.07s4.26-2.94,6.98-2.94c1.57,0,2.99,0.33,4.26,1
		s2.39,1.67,3.35,3.01v-3.52H108.17z M98.34,35.92c-1.37,0-2.63,0.34-3.79,1.01c-1.16,0.67-2.08,1.62-2.77,2.84
		c-0.69,1.22-1.03,2.5-1.03,3.86c0,1.35,0.35,2.63,1.04,3.86s1.62,2.19,2.78,2.87c1.17,0.68,2.41,1.03,3.75,1.03
		c1.35,0,2.62-0.34,3.83-1.02c1.21-0.68,2.13-1.6,2.78-2.76s0.97-2.46,0.97-3.92c0-2.21-0.73-4.06-2.19-5.55
		C102.26,36.66,100.47,35.92,98.34,35.92z"/>
	<path class="st0" d="M113.71,34.03h2.46v3.43c0.98-1.31,2.07-2.29,3.27-2.94s2.5-0.98,3.9-0.98c1.43,0,2.7,0.36,3.81,1.09
		s1.92,1.71,2.45,2.94s0.79,3.15,0.79,5.75v9.84h-2.46v-9.12c0-2.2-0.09-3.67-0.27-4.41c-0.29-1.27-0.83-2.22-1.64-2.86
		s-1.86-0.96-3.16-0.96c-1.49,0-2.82,0.49-4,1.48s-1.95,2.2-2.33,3.66c-0.23,0.95-0.35,2.68-0.35,5.2v7.01h-2.46V34.03z"/>
	<path class="st0" d="M152.15,34.03h2.46v15.24c0,2.68-0.23,4.65-0.7,5.89c-0.64,1.76-1.76,3.11-3.36,4.06s-3.51,1.42-5.75,1.42
		c-1.64,0-3.11-0.23-4.42-0.7c-1.31-0.46-2.37-1.09-3.19-1.87c-0.82-0.78-1.58-1.92-2.27-3.43h2.67c0.73,1.27,1.67,2.2,2.82,2.81
		c1.15,0.61,2.58,0.91,4.28,0.91c1.68,0,3.09-0.31,4.25-0.94c1.16-0.63,1.98-1.41,2.47-2.36c0.49-0.95,0.74-2.47,0.74-4.58v-0.98
		c-0.93,1.17-2.06,2.07-3.4,2.7c-1.34,0.63-2.76,0.94-4.26,0.94c-1.76,0-3.41-0.44-4.96-1.31c-1.55-0.87-2.75-2.05-3.59-3.52
		s-1.27-3.1-1.27-4.87s0.44-3.42,1.32-4.95s2.1-2.74,3.65-3.63s3.19-1.34,4.92-1.34c1.43,0,2.77,0.3,4,0.89
		c1.24,0.59,2.43,1.57,3.58,2.93V34.03z M144.89,35.92c-1.39,0-2.69,0.34-3.88,1.01s-2.13,1.61-2.81,2.79s-1.02,2.48-1.02,3.86
		c0,2.1,0.7,3.83,2.11,5.2s3.23,2.06,5.47,2.06c2.26,0,4.08-0.68,5.46-2.04s2.07-3.15,2.07-5.36c0-1.44-0.32-2.73-0.95-3.86
		s-1.53-2.02-2.69-2.68S146.23,35.92,144.89,35.92z"/>
</g>
<g>
	<polygon class="st1" points="64.64,51.99 43.14,56.99 21.64,51.99 21.64,40.49 21.64,28.99 43.14,33.99 64.64,28.99 64.64,40.49 	
		"/>
	<polygon class="st1" points="60.64,49.99 43.14,56.99 25.64,49.99 25.64,25.99 43.14,33.99 60.64,25.99 	"/>
	<polygon class="st1" points="57.64,47.99 43.14,56.99 29.64,47.99 29.64,23.99 43.14,33.99 56.64,23.99 	"/>
	<line class="st2" x1="43.14" y1="35.99" x2="43.14" y2="53.99"/>
</g>
</svg>
