<?xml version="1.0" encoding="utf-8"?>
<!-- Generator: Adobe Illustrator 23.0.6, SVG Export Plug-In . SVG Version: 6.00 Build 0)  -->
<svg version="1.1" id="Layer_1" xmlns="http://www.w3.org/2000/svg" xmlns:xlink="http://www.w3.org/1999/xlink" x="0px" y="0px"
	 viewBox="0 0 128.99 100" style="enable-background:new 0 0 128.99 100;" xml:space="preserve">
<style type="text/css">
	.st0{fill:#FFFFFF;}
</style>
<path class="st0" d="M93.46,24.95c-2.92-5.06-6.69-9.57-11.16-13.33C61.3-6.04,29.51-3.25,11.89,17.8
	C-5.74,38.85-2.96,70.71,18.05,88.37c21,17.66,52.79,14.88,70.42-6.17L50.18,50L93.46,24.95z M44.41,30.73
	c-4.03,0-7.31-3.28-7.31-7.32c0-4.04,3.27-7.32,7.31-7.32s7.31,3.28,7.31,7.32C51.71,27.45,48.44,30.73,44.41,30.73z"/>
<g>
	<g>
		<path class="st0" d="M76.85,39.54l2.61-0.03l6.33,18.14l-2.45,0.02l-3.27-10.14c-0.67-2.03-1.28-4.02-1.88-6.12l-0.11,0
			c-0.54,2.12-1.1,4.11-1.74,6.15l-3.1,10.2l-2.35,0.02L76.85,39.54z M74.04,50.38l8.36-0.08l0.02,1.85l-8.36,0.08L74.04,50.38z"/>
		<path class="st0" d="M93.59,39.37l5.39-0.05c3.69-0.04,6.26,1.2,6.29,4.4c0.02,1.8-0.92,3.41-2.62,3.98l0,0.11
			c2.18,0.41,3.71,1.83,3.74,4.32c0.04,3.58-2.77,5.35-6.82,5.39l-5.81,0.06L93.59,39.37z M98.67,47.07
			c3.09-0.03,4.36-1.19,4.34-3.03c-0.02-2.13-1.48-2.91-4.29-2.88l-2.79,0.03l0.06,5.91L98.67,47.07z M99.23,55.68
			c3.11-0.03,4.93-1.17,4.9-3.62c-0.02-2.24-1.79-3.25-4.97-3.22L96,48.88l0.07,6.84L99.23,55.68z"/>
		<path class="st0" d="M114.44,48.28c-0.06-5.87,3.36-9.49,7.97-9.53c2.21-0.02,3.94,1.03,5.02,2.19l-1.25,1.52
			c-0.97-1.01-2.17-1.7-3.71-1.68c-3.43,0.03-5.69,2.88-5.64,7.41c0.05,4.58,2.25,7.42,5.7,7.39c1.73-0.02,3.04-0.79,4.19-2.09
			l1.28,1.44c-1.42,1.68-3.19,2.66-5.55,2.68C117.93,57.67,114.5,54.19,114.44,48.28z"/>
	</g>
</g>
</svg>
