<?xml version="1.0" encoding="utf-8"?>
<!-- Generator: Adobe Illustrator 23.0.6, SVG Export Plug-In . SVG Version: 6.00 Build 0)  -->
<svg version="1.1" id="Layer_1" xmlns="http://www.w3.org/2000/svg" xmlns:xlink="http://www.w3.org/1999/xlink" x="0px" y="0px"
	 viewBox="0 0 52 52" style="enable-background:new 0 0 52 52;" xml:space="preserve">
<style type="text/css">
	.st0{fill:none;stroke:#FFFFFF;stroke-width:2;stroke-linecap:round;stroke-miterlimit:10;}
	.st1{fill:#FFFFFF;}
</style>
<g>
	<circle class="st0" cx="26" cy="26" r="25"/>
	<path class="st1" d="M37.49,34.51c-1.8-1.8-4.01-2.24-6.49-2.31l0-2.24c4.41-1.93,7.5-6.33,7.5-11.45C38.5,11.6,32.9,6,26,6
		s-12.5,5.6-12.5,12.5c0,5.12,3.09,9.52,7.5,11.45l0,2.24c-2.48,0.07-4.69,0.52-6.49,2.31c-2.28,2.28-3.88,6.74-4.48,10.72
		C14.36,48.83,19.92,51,26,51c6.07,0,11.64-2.17,15.97-5.77C41.37,41.25,39.77,36.79,37.49,34.51z"/>
</g>
</svg>
